<svg xmlns="http://www.w3.org/2000/svg" viewBox="0 0 256 43.86">
<path fill="currentColor" d="M0 4.22h14c8.26 0 15 2.87 15 12.12 0 9-6.77 12.8-15 12.8H8.8v14H0zm13.3 17.93c4.63 0 7.12-2 7.12-5.81s-2.49-5.13-7.12-5.13H8.8v10.94zm-.89 4.67l6.09-5.63 12.42 22h-9.85zM32.08 28.34c0-9.61 6.85-15.54 14-15.54 8.44 0 12.63 6.13 12.63 14.22a19.71 19.71 0 0 1-.37 3.88H40.58c.79 4.3 3.73 6.27 7.69 6.27a12.35 12.35 0 0 0 6.41-1.94l2.9 5.3a19.3 19.3 0 0 1-10.51 3.33c-8.45 0-14.99-5.71-14.99-15.52zm19.09-3.25c0-3.25-1.41-5.6-4.92-5.6-2.77 0-5.17 1.86-5.77 5.6zM63.22 33.94V1.3H72v33c0 1.88.87 2.48 1.58 2.48a3.84 3.84 0 0 0 1.08-.12l1 6.47a11.26 11.26 0 0 1-4.41.73c-5.97 0-8.03-3.92-8.03-9.92zM77.44 34.93c0-6.24 5-9.62 16.69-10.86-.17-2.59-1.47-4.28-4.68-4.28-2.49 0-5 1-7.85 2.67l-3.12-5.76a24.21 24.21 0 0 1 12.66-3.9c7.58 0 11.77 4.33 11.77 13.41v16.94h-7.16l-.63-3h-.22c-2.5 2.19-5.29 3.75-8.62 3.75-5.41-.04-8.84-3.98-8.84-8.97zm16.69-.39v-5.18c-6.24.84-8.28 2.63-8.28 4.87 0 1.91 1.31 2.84 3.4 2.84s3.32-.98 4.88-2.53zM108.91 32.37v-12h-4v-6.52l4.54-.34 1-7.87h7.26v7.87h7.11v6.89h-7.11v11.87c0 3.36 1.53 4.71 3.84 4.71a8.83 8.83 0 0 0 2.82-.57l1.38 6.38a20.85 20.85 0 0 1-6.58 1.07c-7.35 0-10.26-4.62-10.26-11.49zM128.41 4.59c0-2.69 2.14-4.59 5.08-4.59s5.09 1.9 5.09 4.59-2.14 4.59-5.09 4.59-5.08-1.92-5.08-4.59zm.68 8.92h8.78v29.64h-8.78zM141 13.51h8.82l3.86 14c.76 2.95 1.54 6 2.29 9.11h.24c.76-3.1 1.54-6.16 2.3-9.11l3.86-14h8.41l-9.67 29.64h-10.17zM171.62 28.34c0-9.61 6.86-15.54 14-15.54 8.44 0 12.62 6.13 12.62 14.22a20.69 20.69 0 0 1-.36 3.88h-17.75c.79 4.3 3.73 6.27 7.68 6.27a12.35 12.35 0 0 0 6.41-1.94l2.9 5.3a19.27 19.27 0 0 1-10.51 3.33c-8.45 0-14.99-5.71-14.99-15.52zm19.1-3.25c0-3.25-1.42-5.6-4.92-5.6-2.78 0-5.17 1.86-5.77 5.6zM212.1 23.91c0-12.91 8.54-20.41 18.38-20.41a16.45 16.45 0 0 1 11.71 5.05l-4.64 5.65a9.79 9.79 0 0 0-6.87-3.1c-5.34 0-9.56 4.71-9.56 12.51 0 8 3.73 12.66 9.42 12.66a10.27 10.27 0 0 0 7.61-3.64l4.64 5.52a16 16 0 0 1-12.57 5.71c-9.87 0-18.12-6.86-18.12-19.95zM247.2 4.22h8.8v38.93h-8.8z"/>
</svg>
