<?xml version="1.0" standalone="no"?>
<!DOCTYPE svg PUBLIC "-//W3C//DTD SVG 20010904//EN"
 "http://www.w3.org/TR/2001/REC-SVG-20010904/DTD/svg10.dtd">
<svg version="1.0" xmlns="http://www.w3.org/2000/svg"
 width="513.000000pt" height="513.000000pt" viewBox="0 0 513.000000 513.000000"
 preserveAspectRatio="xMidYMid meet">
<metadata>
Created by potrace 1.11, written by Peter Selinger 2001-2013
</metadata>
<g transform="translate(0.000000,513.000000) scale(0.100000,-0.100000)"
fill="#000000" stroke="none">
<path d="M340 5101 c-124 -39 -237 -139 -293 -258 l-32 -68 0 -2211 0 -2210
38 -78 c70 -141 205 -242 357 -266 89 -14 4221 -14 4310 0 211 33 376 206 400
420 13 112 13 4155 0 4267 -22 192 -156 353 -339 407 -49 14 -267 16 -2220 15
-2041 0 -2169 -1 -2221 -18z m2458 -1242 c330 -35 565 -158 686 -358 141 -232
147 -607 13 -865 -54 -105 -179 -233 -285 -291 -48 -27 -71 -45 -69 -55 3 -8
133 -242 291 -520 l287 -505 -328 -3 c-179 -1 -330 1 -335 6 -4 4 -118 215
-252 468 l-245 459 -160 3 -161 2 0 -470 0 -470 -295 0 -295 0 0 1305 0 1305
525 0 c300 0 567 -5 623 -11z"/>
<path d="M2240 3034 l0 -366 228 4 c202 4 234 7 290 27 121 42 194 107 232
207 19 51 21 74 18 164 -3 90 -8 112 -31 158 -67 129 -205 172 -559 172 l-178
0 0 -366z"/>
</g>
</svg>
