<svg version="1" xmlns="http://www.w3.org/2000/svg" width="682.667" height="682.667" viewBox="0 0 512.000000 512.000000"><path d="M0 256v256h512V0H0v256zm279-58.4v37.5l2.3-.7c1.2-.4 16.8-6.2 34.7-13 17.8-6.8 32.7-12.1 33-11.6 1 1 16.3 45.3 15.9 45.6-.2.2-15.7 5.4-34.4 11.6-18.7 6.2-34.3 11.5-34.7 11.9-.4.3 9.1 13.6 21.2 29.6 12 15.9 21.7 29.1 21.5 29.3-1.3 1.3-39.1 29.2-39.5 29.2-.3 0-10.2-13.6-22-30.1s-21.7-30.2-22.1-30.4c-.3-.2-9.7 13.1-20.9 29.6-11.3 16.5-20.7 30.2-21.1 30.5-.5.3-37.3-25.8-40.1-28.5-.3-.3 9.2-13.6 21.2-29.6 12.1-15.9 21.6-29.3 21.2-29.6-.4-.4-15.8-5.8-34.2-12-18.4-6.2-33.6-11.3-33.8-11.4-.2-.2 15.7-45.7 16.2-46.2.2-.2 42.2 15.8 66.4 25.4.9.4 1.2-7.3 1.2-36.4 0-20.3.3-37.3.7-37.6.3-.4 11.1-.7 24-.7H279v37.6z"/></svg>