<svg width="16" height="16"><symbol viewBox="0 0 24 24" fill="none" stroke="currentColor" stroke-width="2" stroke-linecap="round" stroke-linejoin="round" class="afeather afeather-arrow-down" id="arrow" xmlns="http://www.w3.org/2000/svg"><path d="M12 5v14M19 12l-7 7-7-7"/></symbol><symbol viewBox="0 0 24 24" fill="none" stroke="currentColor" stroke-width="2" stroke-linecap="round" stroke-linejoin="round" class="bfeather bfeather-x-circle" id="cancel" xmlns="http://www.w3.org/2000/svg"><circle cx="12" cy="12" r="10"/><path d="M15 9l-6 6M9 9l6 6"/></symbol><symbol viewBox="0 0 24 24" fill="none" stroke="currentColor" stroke-width="2" stroke-linecap="round" stroke-linejoin="round" class="cfeather cfeather-clock" id="clock" xmlns="http://www.w3.org/2000/svg"><circle cx="12" cy="12" r="10"/><path d="M12 6v6l4 2"/></symbol><symbol viewBox="0 0 24 24" fill="none" stroke="currentColor" stroke-width="2" stroke-linecap="round" stroke-linejoin="round" class="dfeather dfeather-x" id="close" xmlns="http://www.w3.org/2000/svg"><path d="M18 6L6 18M6 6l12 12"/></symbol><symbol viewBox="0 0 24 24" fill="none" stroke="currentColor" stroke-width="2" stroke-linecap="round" stroke-linejoin="round" class="efeather efeather-git-commit" id="commit" xmlns="http://www.w3.org/2000/svg"><circle cx="12" cy="12" r="4"/><path d="M1.05 12H7M17.01 12h5.95"/></symbol><symbol viewBox="0 0 24 24" fill="none" stroke="currentColor" stroke-width="2" stroke-linecap="round" stroke-linejoin="round" class="ffeather ffeather-bar-chart" id="filter" xmlns="http://www.w3.org/2000/svg"><path d="M12 20V10M18 20V4M6 20v-4"/></symbol><symbol viewBox="0 0 24 24" fill="none" stroke="currentColor" stroke-width="2" stroke-linecap="round" stroke-linejoin="round" class="gfeather gfeather-help-circle" id="help" xmlns="http://www.w3.org/2000/svg"><circle cx="12" cy="12" r="10"/><path d="M9.09 9a3 3 0 015.83 1c0 2-3 3-3 3M12 17h.01"/></symbol><symbol viewBox="0 0 24 24" fill="none" stroke="currentColor" stroke-width="2" stroke-linecap="round" stroke-linejoin="round" class="hfeather hfeather-menu" id="menu" xmlns="http://www.w3.org/2000/svg"><path d="M3 12h18M3 6h18M3 18h18"/></symbol><symbol viewBox="0 0 24 24" fill="currentColor" id="sort" xmlns="http://www.w3.org/2000/svg"><path d="M3 18h6v-2H3v2zM3 6v2h18V6H3zm0 7h12v-2H3v2z"/><path d="M0 0h24v24H0z" fill="none"/></symbol><symbol viewBox="0 0 24 24" fill="none" stroke="currentColor" stroke-width="2" stroke-linecap="round" stroke-linejoin="round" class="jfeather jfeather-alert-triangle" id="warning" xmlns="http://www.w3.org/2000/svg"><path d="M10.29 3.86L1.82 18a2 2 0 001.71 3h16.94a2 2 0 001.71-3L13.71 3.86a2 2 0 00-3.42 0zM12 9v4M12 17h.01"/></symbol></svg>
