<svg xmlns="http://www.w3.org/2000/svg" viewBox="0 0 585.89 64" fill="currentColor">
  <path d="M0 4.16h21c12.27 0 22 3.07 22 14.64a13 13 0 01-10 12.66v.36c8.32 1.63 12.48 6 12.48 13.74 0 12.11-10.12 17.36-22.78 17.36H0zM20.61 27.3c5.06 0 7.23-2.53 7.23-6.15s-2.17-5.06-7.23-5.06h-5.06V27.3zM21.69 51c6.15 0 8.68-2.35 8.68-6.69s-2.53-6.14-8.68-6.14h-6.14V51zM53.51 45.56V17.72h15.55v25.85c0 5.06 1.08 7.23 5.15 7.23 2.62 0 4.43-.72 6.78-4V17.72h15.55v45.2H83.88L82.8 57h-.36c-3.8 4.34-8.32 7-14.65 7-10.12 0-14.28-7.23-14.28-18.44zM108.46 17.72h12.66l1.08 5.42h.37c3.61-3.43 8.49-6.51 15.09-6.51 10 0 14.38 7.23 14.38 18.44v27.85h-15.55V37.06c0-5.06-1.27-7.23-5.25-7.23-2.89 0-4.88 1.27-7.23 3.43v29.66h-15.55zM160.71 40.32c0-14.83 9.4-23.69 18.89-23.69a13.32 13.32 0 0110.58 4.52h.36l-.72-6.51V0h15.54v62.92h-12.65l-1.09-4.16h-.36C188.1 61.83 183.67 64 179.6 64c-11.48 0-18.89-9-18.89-23.68zm29.11 7.77V31.46a8.43 8.43 0 00-6-2.17c-3.8 0-7.23 2.89-7.23 10.85 0 8.13 2.62 11.2 7 11.2a6.64 6.64 0 006.23-3.25zM228.32 44.29V12.11h-13.56V0h29.11v44.84c0 5.24 3.61 6.69 6.78 6.69a19.61 19.61 0 006.5-1.27l3.35 11.39c-4.88 1.45-8.14 2.35-14 2.35-12.04 0-18.18-8-18.18-19.71zM269.89 40.32c0-14.83 11.57-23.69 23.69-23.69 14.28 0 21.51 9.77 21.51 21.88a41.18 41.18 0 01-.63 6.51h-32.81V34.89h22.05l-2.17 2.71c0-6-2.35-9.22-7.41-9.22-6 0-9.22 3.8-9.22 11.94 0 8.49 4.16 11.93 12.47 11.93a25.37 25.37 0 0010.85-2.71l5.06 9.22A35.87 35.87 0 01295.21 64c-14.29 0-25.32-8.68-25.32-23.68zM323.58 55.59l8.86-10.66c4.43 3.34 9.68 5.69 15 5.69 4.7 0 6.51-1.54 6.51-3.43 0-3.44-3.08-4.16-8.5-6.42l-7.32-3.08c-6.78-2.53-12.39-7.86-12.39-16.36 0-10 9-18.26 22.42-18.26a29.52 29.52 0 0120.07 7.87l-7.77 9.76c-4.25-2.8-7.6-4.25-13.2-4.25-3.44 0-5.79 1.27-5.79 4s3.35 3.71 9.22 5.87l6.78 2.81c7.87 2.89 12.39 8 12.39 16.09 0 9.94-8.32 18.8-23.51 18.8a35.4 35.4 0 01-22.77-8.43zM388.48 43.75V29.83h-10.84V18.26l11.57-.54 2-13.56H404v13.56h17.9v12.11H404v13.65c0 6.42 3 8.41 8.77 8.41a25.84 25.84 0 008.23-1.45l2.71 11.21a54.6 54.6 0 01-15 2.35c-14.8 0-20.23-8.14-20.23-20.25zM433 50.08c0-10.13 8-15.37 28.57-16.45-.54-3.26-3.62-4.7-8.68-4.7-3.8 0-7.59 1.26-13 3.79L434.4 22.6a43.82 43.82 0 0121.51-6c12.84 0 21.16 6.33 21.16 21.15v25.17h-12.66l-1.08-4.71H463c-4.46 3.26-9.8 5.79-15.4 5.79-9.4 0-14.6-6.51-14.6-13.92zm28.57-1.45v-5.78c-11 .36-13.74 2.89-13.74 6 0 2.08 1.62 3.26 4.88 3.26 3.57-.04 6.37-1.67 8.81-3.48zM497 43.75V29.83h-10.9V18.26l11.57-.54 2-13.56h12.83v13.56h17.9v12.11h-17.9v13.65c0 6.42 3 8.41 8.77 8.41a25.74 25.74 0 008.23-1.45l2.71 11.21a54.6 54.6 0 01-15 2.35C502.37 64 497 55.86 497 43.75zM540.69 57.13l6.51-9.58a35.55 35.55 0 0017.72 5.06c4 0 5.6-1.08 5.6-2.71 0-2.17-2.35-2.53-9.94-4.16-12.48-2.71-17-7.41-17-14.46 0-8.86 8.41-14.65 21.52-14.65 8.5 0 15.28 3.35 20.07 6.33l-6.87 9.22A30.11 30.11 0 00563.65 28c-2.89 0-4.7.91-4.7 2.53 0 2 2.35 2.17 9.4 3.8 13.56 3.07 17.54 7.14 17.54 14.64 0 8.5-8 15-23.14 15-7.75.03-16.27-3.04-22.06-6.84z"/>
</svg>
