<svg viewBox="0 0 640 1024" xmlns="http://www.w3.org/2000/svg" fill="currentColor">
<path d="M512 192c-70.625 0-128 57.344-128 128 0 47.219 25.875 88.062 64 110.281V448s0 128-128 128c-53.062 0-94.656 11.375-128 28.812V302.281c38.156-22.219 64-63.062 64-110.281 0-70.656-57.344-128-128-128S0 121.344 0 192c0 47.219 25.844 88.062 64 110.281V721.75C25.844 743.938 0 784.75 0 832c0 70.625 57.344 128 128 128s128-57.375 128-128c0-33.5-13.188-63.75-34.25-86.625C240.375 722.5 270.656 704 320 704c254 0 256-256 256-256v-17.719c38.125-22.219 64-63.062 64-110.281 0-70.656-57.375-128-128-128zm-384-64c35.406 0 64 28.594 64 64s-28.594 64-64 64-64-28.594-64-64 28.594-64 64-64zm0 768c-35.406 0-64-28.625-64-64 0-35.312 28.594-64 64-64s64 28.688 64 64c0 35.375-28.594 64-64 64zm384-512c-35.375 0-64-28.594-64-64s28.625-64 64-64 64 28.594 64 64-28.625 64-64 64z"/>
</svg>
