<svg xmlns="http://www.w3.org/2000/svg" viewBox="0 0 256 256" fill="currentColor">
<path d="M73.1 54.9c10.1 0 18.3 8.2 18.3 18.3s-8.2 18.3-18.3 18.3-18.3-8.2-18.3-18.3S63 54.9 73.1 54.9zM256 201.1c0 30.3-24.6 54.9-54.9 54.9h-128l54.9-54.9h23.2c6.3 10.9 18.1 18.3 31.7 18.3 20.2 0 36.6-16.4 36.6-36.6s-16.4-36.6-36.6-36.6c-13.5 0-25.4 7.4-31.7 18.3h-41.5L26.3 248C10.5 238.4 0 221 0 201.1V54.9C0 24.6 24.6 0 54.9 0v41.5C44 47.8 36.6 59.6 36.6 73.2c0 20.2 16.4 36.6 36.6 36.6 13.5 0 25.3-7.3 31.6-18.2l46.4-.1c6.3 10.9 18.1 18.3 31.7 18.3 20.2 0 36.6-16.4 36.6-36.6s-16.4-36.6-36.6-36.6c-13.5 0-25.4 7.4-31.7 18.3l-46.3.1c-3.2-5.6-7.9-10.2-13.4-13.5V0h109.7C231.4 0 256 24.6 256 54.9v146.2zm-91.4-18.2c0-10.1 8.2-18.3 18.3-18.3s18.3 8.2 18.3 18.3-8.2 18.3-18.3 18.3-18.3-8.2-18.3-18.3zm0-109.8c0-10.1 8.2-18.3 18.3-18.3s18.3 8.2 18.3 18.3-8.2 18.3-18.3 18.3-18.3-8.2-18.3-18.3z"/>
</svg>
