<?xml version="1.0" standalone="no"?>
<!DOCTYPE svg PUBLIC "-//W3C//DTD SVG 20010904//EN"
 "http://www.w3.org/TR/2001/REC-SVG-20010904/DTD/svg10.dtd">
<svg version="1.0" xmlns="http://www.w3.org/2000/svg"
 width="1025.000000pt" height="1025.000000pt" viewBox="0 0 1025.000000 1025.000000"
 preserveAspectRatio="xMidYMid meet">
<metadata>
Created by potrace 1.11, written by Peter Selinger 2001-2013
</metadata>
<g transform="translate(0.000000,1025.000000) scale(0.100000,-0.100000)"
fill="#000000" stroke="none">
<path d="M826 10239 c-220 -32 -426 -142 -577 -308 -105 -115 -185 -265 -226
-427 -17 -65 -18 -298 -18 -4379 l0 -4310 23 -85 c94 -342 355 -603 692 -692
l85 -23 4315 0 4315 0 85 23 c337 89 598 350 692 692 l23 85 0 4310 c0 4081
-1 4314 -18 4379 -91 354 -348 618 -696 715 l-96 26 -4270 1 c-2367 1 -4296
-2 -4329 -7z m3613 -2049 c248 -70 445 -251 530 -487 17 -46 240 -1060 537
-2435 280 -1297 511 -2358 514 -2358 3 0 232 526 509 1168 277 642 520 1198
539 1235 41 79 112 148 192 186 l55 26 685 0 685 0 67 -33 c84 -41 167 -128
199 -209 19 -47 23 -78 24 -158 0 -88 -3 -107 -27 -157 -50 -108 -123 -177
-231 -222 -50 -20 -70 -21 -540 -26 l-488 -5 -492 -1135 c-285 -657 -509
-1159 -531 -1193 -139 -210 -364 -335 -630 -353 -328 -21 -651 196 -765 513
-16 45 -244 1079 -537 2440 -280 1299 -512 2359 -516 2355 -4 -4 -235 -535
-513 -1181 -278 -645 -517 -1196 -531 -1224 -31 -60 -106 -138 -162 -166 -98
-50 -114 -51 -772 -51 -524 0 -625 2 -675 16 -120 31 -215 110 -268 222 -29
62 -32 75 -32 167 1 80 5 111 24 158 32 81 115 168 199 209 l67 33 496 3 496
3 473 1092 c260 601 486 1119 503 1152 115 233 323 387 585 435 75 14 248 3
331 -20z"/>
</g>
</svg>
